<?xml version="1.0"?>
<svg xmlns="http://www.w3.org/2000/svg" xmlns:xlink="http://www.w3.org/1999/xlink" version="1.1" id="Capa_1" x="0px" y="0px" width="512px" height="512px" viewBox="0 0 53.452 53.453" style="enable-background:new 0 0 53.452 53.453;" xml:space="preserve" class=""><g><g>
	<path d="M52.275,25.551H42.068C41.465,17.93,35.087,11.91,27.314,11.91c-5.269,0-9.891,2.773-12.518,6.926H1.176   c-0.648,0-1.175,0.526-1.175,1.175c0,0.648,0.526,1.175,1.175,1.175h12.408c-0.554,1.367-0.904,2.833-1.025,4.365H4.407   c-0.648,0-1.175,0.526-1.175,1.175c0,0.648,0.526,1.174,1.175,1.174h8.152c0.141,1.787,0.601,3.48,1.322,5.033H1.175   C0.527,32.933,0,33.46,0,34.109s0.526,1.174,1.175,1.174h14.066c2.688,3.779,7.091,6.26,12.072,6.26c4.98,0,9.384-2.48,12.072-6.26   h5.844c0.648,0,1.174-0.525,1.174-1.174s-0.524-1.176-1.174-1.176h-4.481c0.721-1.553,1.183-3.246,1.321-5.033h10.209   c0.648,0,1.175-0.525,1.175-1.174C53.452,26.077,52.924,25.551,52.275,25.551z M27.313,39.191c-3.56,0-6.767-1.508-9.04-3.908   h18.081C34.081,37.683,30.874,39.191,27.313,39.191z M38.107,32.933H16.519c-0.871-1.51-1.44-3.213-1.612-5.033h24.812   C39.547,29.72,38.979,31.423,38.107,32.933z M14.907,25.55c0.147-1.557,0.588-3.026,1.256-4.364h11.151   c0.647,0,1.174-0.526,1.174-1.175s-0.524-1.175-1.174-1.175h-9.643c2.288-2.791,5.76-4.577,9.643-4.577   c6.478,0,11.812,4.967,12.407,11.291H14.907z" data-original="#000000" class="active-path" data-old_color="#ffffff" fill="#ffffff"/>
</g></g> </svg>
