<?xml version="1.0"?>
<svg xmlns="http://www.w3.org/2000/svg" xmlns:xlink="http://www.w3.org/1999/xlink" version="1.1" id="Layer_1" x="0px" y="0px" viewBox="0 0 496 496" style="enable-background:new 0 0 496 496;" xml:space="preserve" width="512px" height="512px" class=""><g><g>
	<g>
		<path d="M247.568,123.408c-68.656,0-124.512,55.856-124.512,124.512s55.856,124.512,124.512,124.512S372.08,316.576,372.08,247.92    S316.224,123.408,247.568,123.408z M247.568,340.432c-51.008,0-92.512-41.504-92.512-92.512c0-51.008,41.504-92.512,92.512-92.512    s92.512,41.504,92.512,92.512S298.576,340.432,247.568,340.432z" data-original="#000000" class="active-path" data-old_color="#ffffff" fill="#ffffff"/>
	</g>
</g><g>
	<g>
		<path d="M248,402.128c-8.832,0-16,7.168-16,16V480c0,8.832,7.168,16,16,16c8.832,0,16-7.168,16-16v-61.872    C264,409.296,256.832,402.128,248,402.128z" data-original="#000000" class="active-path" data-old_color="#ffffff" fill="#ffffff"/>
	</g>
</g><g>
	<g>
		<path d="M248,0c-8.832,0-16,7.168-16,16v61.872c0,8.832,7.168,16,16,16c8.832,0,16-7.168,16-16V16C264,7.168,256.832,0,248,0z" data-original="#000000" class="active-path" data-old_color="#ffffff" fill="#ffffff"/>
	</g>
</g><g>
	<g>
		<path d="M480,232h-61.856c-8.832,0-16,7.168-16,16c0,8.832,7.168,16,16,16H480c8.832,0,16-7.168,16-16    C496,239.168,488.832,232,480,232z" data-original="#000000" class="active-path" data-old_color="#ffffff" fill="#ffffff"/>
	</g>
</g><g>
	<g>
		<path d="M77.872,232H16c-8.832,0-16,7.168-16,16c0,8.832,7.168,16,16,16h61.872c8.832,0,16-7.168,16-16    C93.872,239.168,86.704,232,77.872,232z" data-original="#000000" class="active-path" data-old_color="#ffffff" fill="#ffffff"/>
	</g>
</g><g>
	<g>
		<path d="M423.216,400.624l-42.32-42.32c-6.256-6.256-16.368-6.256-22.624,0c-6.256,6.24-6.256,16.368,0,22.624l42.32,42.32    c3.12,3.12,7.216,4.688,11.312,4.688s8.192-1.568,11.312-4.688C429.472,417.008,429.472,406.88,423.216,400.624z" data-original="#000000" class="active-path" data-old_color="#ffffff" fill="#ffffff"/>
	</g>
</g><g>
	<g>
		<path d="M137.68,115.072l-42.32-42.32c-6.256-6.256-16.368-6.256-22.624,0c-6.256,6.256-6.256,16.368,0,22.624l42.32,42.32    c3.12,3.12,7.216,4.688,11.312,4.688c4.096,0,8.192-1.568,11.312-4.688C143.936,131.44,143.936,121.328,137.68,115.072z" data-original="#000000" class="active-path" data-old_color="#ffffff" fill="#ffffff"/>
	</g>
</g><g>
	<g>
		<path d="M423.232,72.752c-6.256-6.256-16.368-6.256-22.624,0l-42.32,42.32c-6.256,6.256-6.256,16.368,0,22.624    c3.12,3.12,7.216,4.688,11.312,4.688c4.08,0,8.176-1.568,11.312-4.688l42.32-42.32C429.488,89.12,429.488,79.008,423.232,72.752z" data-original="#000000" class="active-path" data-old_color="#ffffff" fill="#ffffff"/>
	</g>
</g><g>
	<g>
		<path d="M137.68,358.304c-6.256-6.256-16.368-6.256-22.624,0l-42.32,42.32c-6.256,6.256-6.256,16.384,0,22.624    c3.12,3.12,7.216,4.688,11.312,4.688c4.096,0,8.192-1.568,11.312-4.688l42.32-42.32    C143.936,374.672,143.936,364.544,137.68,358.304z" data-original="#000000" class="active-path" data-old_color="#ffffff" fill="#ffffff"/>
	</g>
</g></g> </svg>
