<?xml version="1.0"?>
<svg xmlns="http://www.w3.org/2000/svg" height="512px" viewBox="0 -64 512 512" width="512px" class=""><g><path d="m501.332031 64c-28.542969 0-43.175781-12.714844-56.105469-23.957031-11.5625-10.027344-21.546874-18.710938-42.113281-18.710938-20.5625 0-30.546875 8.683594-42.109375 18.710938-12.90625 11.242187-27.542968 23.957031-56.085937 23.957031s-43.15625-12.734375-56.085938-23.957031c-11.542969-10.046875-21.523437-18.710938-42.070312-18.710938-20.523438 0-30.464844 8.664063-42.003907 18.710938-12.90625 11.222656-27.519531 23.957031-56.042968 23.957031-28.5 0-43.136719-12.734375-56.023438-23.957031-11.539062-10.046875-21.503906-18.710938-42.023437-18.710938-5.890625 0-10.667969-4.777343-10.667969-10.664062 0-5.890625 4.777344-10.667969 10.667969-10.667969 28.5 0 43.113281 12.734375 56.019531 23.957031 11.542969 10.046875 21.503906 18.710938 42.027344 18.710938 20.542968 0 30.507812-8.683594 42.046875-18.710938 12.886719-11.242187 27.5-23.957031 56-23.957031 28.523437 0 43.136719 12.714844 56.066406 23.957031 11.539063 10.027344 21.523437 18.710938 42.089844 18.710938 20.566406 0 30.546875-8.683594 42.113281-18.710938 12.90625-11.242187 27.5625-23.957031 56.082031-23.957031 28.523438 0 43.179688 12.714844 56.109375 23.957031 11.5625 10.027344 21.546875 18.710938 42.109375 18.710938 5.890625 0 10.667969 4.777343 10.667969 10.664062 0 5.890625-4.777344 10.667969-10.667969 10.667969zm0 0" data-original="#000000" class="active-path" data-old_color="#ffffff" fill="#ffffff"/><path d="m501.332031 170.667969c-28.542969 0-43.175781-12.714844-56.105469-23.957031-11.5625-10.027344-21.546874-18.710938-42.113281-18.710938-20.5625 0-30.546875 8.683594-42.109375 18.710938-12.90625 11.242187-27.542968 23.957031-56.085937 23.957031s-43.15625-12.738281-56.085938-23.957031c-11.542969-10.050782-21.523437-18.710938-42.070312-18.710938-20.523438 0-30.464844 8.660156-42.003907 18.710938-12.90625 11.21875-27.519531 23.957031-56.042968 23.957031-28.5 0-43.136719-12.738281-56.023438-23.957031-11.539062-10.050782-21.503906-18.710938-42.023437-18.710938-5.890625 0-10.667969-4.777344-10.667969-10.667969 0-5.886719 4.777344-10.664062 10.667969-10.664062 28.5 0 43.113281 12.734375 56.019531 23.957031 11.542969 10.046875 21.503906 18.707031 42.027344 18.707031 20.542968 0 30.507812-8.679687 42.046875-18.707031 12.886719-11.242188 27.5-23.957031 56-23.957031 28.523437 0 43.136719 12.714843 56.066406 23.957031 11.539063 10.027344 21.523437 18.707031 42.089844 18.707031 20.566406 0 30.546875-8.679687 42.113281-18.707031 12.90625-11.242188 27.5625-23.957031 56.082031-23.957031 28.523438 0 43.179688 12.714843 56.109375 23.957031 11.5625 10.027344 21.546875 18.707031 42.109375 18.707031 5.890625 0 10.667969 4.78125 10.667969 10.667969s-4.777344 10.667969-10.667969 10.667969zm0 0" data-original="#000000" class="active-path" data-old_color="#ffffff" fill="#ffffff"/><path d="m501.332031 277.332031c-28.542969 0-43.175781-12.714843-56.105469-23.957031-11.5625-10.027344-21.546874-18.707031-42.113281-18.707031-20.5625 0-30.546875 8.679687-42.109375 18.707031-12.90625 11.242188-27.542968 23.957031-56.085937 23.957031s-43.15625-12.734375-56.085938-23.957031c-11.542969-10.046875-21.523437-18.707031-42.070312-18.707031-20.523438 0-30.484375 8.660156-42.027344 18.707031-12.882813 11.222656-27.496094 23.957031-56.019531 23.957031-28.5 0-43.113282-12.734375-56.023438-23.957031-11.539062-10.046875-21.503906-18.707031-42.023437-18.707031-5.890625 0-10.667969-4.78125-10.667969-10.667969s4.777344-10.667969 10.667969-10.667969c28.5 0 43.113281 12.738281 56.019531 23.957031 11.542969 10.050782 21.503906 18.710938 42.027344 18.710938 20.542968 0 30.507812-8.683594 42.046875-18.710938 12.886719-11.242187 27.5-23.957031 56-23.957031 28.523437 0 43.136719 12.714844 56.066406 23.957031 11.539063 10.027344 21.523437 18.710938 42.089844 18.710938 20.566406 0 30.546875-8.683594 42.113281-18.710938 12.90625-11.242187 27.5625-23.957031 56.082031-23.957031 28.523438 0 43.179688 12.714844 56.109375 23.957031 11.5625 10.027344 21.546875 18.710938 42.109375 18.710938 5.890625 0 10.667969 4.777344 10.667969 10.667969 0 5.886719-4.777344 10.664062-10.667969 10.664062zm0 0" data-original="#000000" class="active-path" data-old_color="#ffffff" fill="#ffffff"/><path d="m501.332031 384c-28.542969 0-43.175781-12.714844-56.105469-23.957031-11.5625-10.027344-21.546874-18.710938-42.113281-18.710938-20.5625 0-30.546875 8.683594-42.109375 18.710938-12.90625 11.242187-27.542968 23.957031-56.085937 23.957031s-43.15625-12.734375-56.085938-23.957031c-11.542969-10.046875-21.523437-18.710938-42.070312-18.710938-20.523438 0-30.484375 8.664063-42.027344 18.710938-12.882813 11.222656-27.496094 23.957031-56.019531 23.957031-28.5 0-43.113282-12.734375-56.023438-23.957031-11.539062-10.046875-21.503906-18.710938-42.023437-18.710938-5.890625 0-10.667969-4.777343-10.667969-10.664062 0-5.890625 4.777344-10.667969 10.667969-10.667969 28.5 0 43.113281 12.734375 56.019531 23.957031 11.542969 10.046875 21.503906 18.710938 42.027344 18.710938 20.542968 0 30.507812-8.683594 42.046875-18.710938 12.886719-11.242187 27.5-23.957031 56-23.957031 28.523437 0 43.136719 12.714844 56.066406 23.957031 11.539063 10.027344 21.523437 18.710938 42.089844 18.710938 20.566406 0 30.546875-8.683594 42.113281-18.710938 12.90625-11.242187 27.5625-23.957031 56.082031-23.957031 28.523438 0 43.179688 12.714844 56.109375 23.957031 11.5625 10.027344 21.546875 18.710938 42.109375 18.710938 5.890625 0 10.667969 4.777343 10.667969 10.664062 0 5.890625-4.777344 10.667969-10.667969 10.667969zm0 0" data-original="#000000" class="active-path" data-old_color="#ffffff" fill="#ffffff"/></g> </svg>
