<?xml version="1.0"?>
<svg xmlns="http://www.w3.org/2000/svg" xmlns:xlink="http://www.w3.org/1999/xlink" version="1.1" id="Capa_1" x="0px" y="0px" viewBox="0 0 32 32" style="enable-background:new 0 0 32 32;" xml:space="preserve" width="512px" height="512px" class=""><g><g>
	<g>
		<circle cx="24" cy="25.5" r="1" data-original="#030104" class="active-path" data-old_color="#ffffff" fill="#ffffff"/>
		<circle cx="20" cy="28.5" r="1" data-original="#030104" class="active-path" data-old_color="#ffffff" fill="#ffffff"/>
		<circle cx="8" cy="25.5" r="1" data-original="#030104" class="active-path" data-old_color="#ffffff" fill="#ffffff"/>
		<circle cx="12" cy="28.5" r="1" data-original="#030104" class="active-path" data-old_color="#ffffff" fill="#ffffff"/>
		<circle cx="16" cy="25.5" r="1" data-original="#030104" class="active-path" data-old_color="#ffffff" fill="#ffffff"/>
		<path d="M27.586,10.712C26.66,8.251,24.284,6.5,21.5,6.5c-0.641,0-1.26,0.093-1.846,0.266    C18.068,4.205,15.233,2.5,12,2.5c-4.904,0-8.894,3.924-8.998,8.803C1.207,12.342,0,14.283,0,16.5c0,3.312,2.688,6,6,6h20    c3.312,0,6-2.693,6-6C32,13.735,30.13,11.407,27.586,10.712z M26.003,20.5H5.997C3.794,20.5,2,18.709,2,16.5    c0-1.892,1.317-3.482,3.087-3.896C5.029,12.245,5,11.876,5,11.5c0-3.866,3.134-7,7-7c3.162,0,5.834,2.097,6.702,4.975    C19.471,8.864,20.441,8.5,21.5,8.5c2.316,0,4.225,1.75,4.473,4h0.03c2.203,0,3.997,1.791,3.997,4    C30,18.705,28.211,20.5,26.003,20.5z" data-original="#030104" class="active-path" data-old_color="#ffffff" fill="#ffffff"/>
	</g>
</g></g> </svg>
