<?xml version="1.0"?>
<svg xmlns="http://www.w3.org/2000/svg" height="512px" viewBox="-52 0 512 512" width="512px" class=""><g><path d="m206.933594 4.949219c-2.316406-4.484375-7.828125-6.246094-12.316406-3.929688-1.832032.945313-3.289063 2.480469-4.136719 4.359375l-61.605469 137.792969-37.230469-68.554687c-1.578125-3.019532-4.742187-4.878907-8.152343-4.78125-3.398438.050781-6.488282 1.976562-8.023438 5.011718l-66.1875 130.414063c-21.3125 41.828125-4.679688 93.015625 37.152344 114.328125 1.796875.917968 3.628906 1.769531 5.488281 2.558594-17.914063 75.324218 22.824219 152.253906 95.195313 179.769531 33.289062 12.644531 69.921874 13.417969 103.714843 2.195312l10.054688-3.367187c80.847656-26.925782 124.554687-114.292969 97.625-195.136719-2.445313-7.347656-5.441407-14.5-8.960938-21.394531zm-149.609375 299.65625c-33.582031-15.425781-48.300781-55.160157-32.871094-88.742188.359375-.78125.734375-1.5625 1.125-2.332031l58.316406-114.929688 35.582031 65.589844-58.351562 130.589844c-1.441406 3.234375-2.59375 6.535156-3.800781 9.824219zm280.671875 101.285156c-14.996094 36.6875-45.261719 65-82.867188 77.519531l-10.054687 3.351563c-29.800781 9.910156-62.113281 9.222656-91.464844-1.945313-70.191406-26.726562-105.425781-105.289062-78.699219-175.480468.910156-2.390626 1.890625-4.757813 2.933594-7.097657l121.566406-271.960937 133.90625 262.246094c18.019532 35.296874 19.730469 76.703124 4.679688 113.367187zm0 0" data-original="#000000" class="active-path" data-old_color="#FFFEFE" fill="#FFFFFF"/><path d="m317.667969 329.019531h-.054688c-5.027343 0-9.109375 4.058594-9.140625 9.085938-.121094 40.292969-22.925781 77.085937-58.957031 95.121093-4.523437 2.242188-6.375 7.722657-4.136719 12.25 2.242188 4.523438 7.722656 6.375 12.25 4.136719.035156-.019531.074219-.039062.113282-.058593 42.175781-21.121094 68.863281-64.183594 69.011718-111.347657.023438-5.046875-4.042968-9.15625-9.085937-9.1875zm0 0" data-original="#000000" class="active-path" data-old_color="#FFFEFE" fill="#FFFFFF"/><path d="m363.3125 447.84375h18.28125v18.28125h-18.28125zm0 0" data-original="#000000" class="active-path" data-old_color="#FFFEFE" fill="#FFFFFF"/><path d="m390.734375 411.28125h18.28125v18.28125h-18.28125zm0 0" data-original="#000000" class="active-path" data-old_color="#FFFEFE" fill="#FFFFFF"/><path d="m335.894531 484.40625h18.28125v18.28125h-18.28125zm0 0" data-original="#000000" class="active-path" data-old_color="#FFFEFE" fill="#FFFFFF"/></g> </svg>
