<?xml version="1.0"?>
<svg xmlns="http://www.w3.org/2000/svg" xmlns:xlink="http://www.w3.org/1999/xlink" version="1.1" id="Capa_1" x="0px" y="0px" viewBox="0 0 376.4 376.4" style="enable-background:new 0 0 376.4 376.4;" xml:space="preserve" width="512px" height="512px" class=""><g><path id="XMLID_727_" d="M221.269,346.954c-5.932,12.427-14.056,29.446-38.077,29.446c-24.032,0-32.021-16.751-38.44-30.21  c-0.874-1.832-17.441-34.544-17.441-34.544c-35.118-69.018-72.583-145.784-72.583-183.179C54.727,57.631,112.356,0,183.192,0  c70.837,0,128.467,57.631,128.467,128.468c0,14.442-5.493,35.446-16.794,64.214c-1.818,4.626-7.042,6.904-11.667,5.086  c-4.626-1.817-6.904-7.041-5.086-11.668c10.317-26.262,15.548-45.652,15.548-57.632C293.659,67.556,244.104,18,183.192,18  C122.281,18,72.727,67.556,72.727,128.468c0,36.211,47.702,129.962,70.626,175.017c0,0,16.729,33.035,17.645,34.957  c6.601,13.84,10.032,19.959,22.194,19.959c11.576,0,15.181-5.266,21.833-19.2c2.141-4.485,7.515-6.388,11.999-4.245  C221.51,337.097,223.41,342.469,221.269,346.954z M319.466,350.131c-3.447,9.878-10.535,17.822-19.957,22.369  c-5.47,2.64-11.258,3.89-16.96,3.89c-14.573,0-28.589-8.161-35.336-22.14L198.34,252.892c-4.545-9.421-5.151-20.049-1.704-29.926  c1.729-4.955,4.375-9.424,7.772-13.222c-16.38,4.31-33.661,3.55-49.914-2.366c-21.073-7.67-37.898-23.087-47.375-43.411  c-19.564-41.956-1.348-92.007,40.608-111.572c0,0,0-0.001,0-0.001c41.955-19.563,92.007-1.347,111.571,40.61  c9.477,20.325,10.473,43.123,2.803,64.196c-5.866,16.117-16.265,29.75-29.924,39.511c4.81-0.176,9.66,0.548,14.342,2.182  c9.878,3.447,17.822,10.534,22.368,19.956l48.873,101.357C322.307,329.625,322.914,340.254,319.466,350.131z M211.157,188.228  c15.931-7.451,28.016-20.654,34.032-37.184c6.025-16.555,5.244-34.466-2.202-50.433c-15.371-32.962-54.69-47.273-87.651-31.903  l0-0.001c-32.96,15.371-47.271,54.691-31.902,87.652c7.445,15.967,20.663,28.079,37.218,34.104  c16.53,6.016,34.412,5.244,50.36-2.169c0.023-0.011,0.047-0.022,0.071-0.033C211.107,188.25,211.132,188.239,211.157,188.228z   M301.549,328.027l-48.873-101.358c-2.456-5.089-6.749-8.919-12.086-10.781c-2.284-0.797-4.642-1.193-6.991-1.193  c-3.143,0-6.269,0.708-9.182,2.114c-5.092,2.457-8.923,6.751-10.786,12.089c-1.863,5.338-1.536,11.082,0.921,16.173  c0,0.001,0.001,0.002,0.001,0.003l48.872,101.355c5.071,10.508,17.75,14.933,28.261,9.86c5.092-2.457,8.922-6.75,10.785-12.089  C304.334,338.862,304.007,333.119,301.549,328.027z M163.238,85.657c-23.616,11.013-33.87,39.185-22.857,62.8  c1.527,3.274,4.773,5.198,8.163,5.198c1.273,0,2.567-0.271,3.798-0.846c4.505-2.101,6.454-7.455,4.353-11.96  c-3.303-7.082-3.649-15.026-0.977-22.37c2.673-7.344,8.045-13.206,15.128-16.51c4.505-2.101,6.454-7.455,4.353-11.96  S167.744,83.554,163.238,85.657z" data-original="#000000" class="active-path" data-old_color="#ffffff" fill="#ffffff"/></g> </svg>
