<?xml version="1.0"?>
<svg xmlns="http://www.w3.org/2000/svg" height="512px" viewBox="-66 0 512 512" width="512px" class=""><g><path d="m191.011719.00390625-.648438-.00390625c-104.964843 0-190.363281 85.40625-190.363281 190.386719 0 57.558593 29.417969 102.445312 62.195312 147.148437l127.917969 174.464844 128.46875-174.464844c32.777344-44.699218 62.195313-89.589844 62.195313-147.144531 0-104.773437-85.066406-190.054687-189.765625-190.38671875zm103.378906 319.79296875s-99.363281 135.886719-103.871094 142.019531l-104.132812-142.019531c-30.851563-42.078125-56.386719-80.855469-56.386719-129.410156 0-88.238281 71.613281-160.0625 159.765625-160.386719h.621094c88.441406.003906 160.390625 71.953125 160.390625 160.390625 0 48.550781-25.535156 87.332031-56.386719 129.40625zm0 0" data-original="#000000" class="active-path" data-old_color="#ffffff" fill="#ffffff"/><path d="m190.386719 64c-69.691407 0-126.386719 56.695312-126.386719 126.390625 0 69.691406 56.695312 126.386719 126.386719 126.386719 69.691406 0 126.390625-56.695313 126.390625-126.386719 0-69.695313-56.695313-126.390625-126.390625-126.390625zm-50.195313 208.644531v-13.671875c.082032-18.4375 15.160156-33.441406 33.605469-33.441406h33.230469c18.53125 0 33.605468 15.074219 33.605468 33.605469v13.480469c-14.640624 8.976562-31.847656 14.160156-50.246093 14.160156-18.375 0-35.566407-5.171875-50.195313-14.132813zm50.195313-77.113281c-12.292969 0-22.296875-10.003906-22.296875-22.296875 0-12.296875 10.003906-22.300781 22.296875-22.300781 12.296875 0 22.300781 10.003906 22.300781 22.300781 0 12.292969-10.003906 22.296875-22.300781 22.296875zm78.828125 50.269531c-4.183594-19.53125-17.355469-35.761719-34.964844-44.136719 5.328125-8.191406 8.4375-17.949218 8.4375-28.429687 0-28.835937-23.460938-52.296875-52.296875-52.296875-28.839844 0-52.300781 23.460938-52.300781 52.296875 0 10.492187 3.117187 20.261719 8.457031 28.460937-17.582031 8.390626-30.757813 24.628907-34.941406 44.167969-11.085938-15.699219-17.605469-34.835937-17.605469-55.472656 0-53.152344 43.238281-96.394531 96.390625-96.394531 53.148437 0 96.390625 43.242187 96.390625 96.394531-.003906 20.605469-6.507812 39.722656-17.566406 55.410156zm0 0" data-original="#000000" class="active-path" data-old_color="#ffffff" fill="#ffffff"/></g> </svg>
