<?xml version="1.0"?>
<svg xmlns="http://www.w3.org/2000/svg" xmlns:xlink="http://www.w3.org/1999/xlink" version="1.1" id="Layer_1" x="0px" y="0px" viewBox="0 0 188.377 188.377" style="enable-background:new 0 0 188.377 188.377;" xml:space="preserve" width="512px" height="512px" class=""><g><g>
	<g>
		<g>
			<path d="M158.717,24.669c-5.23-12.101-17.528-20.058-31.432-20.058c-17.526,0-32,12.741-33.825,29.07     c-12.736,1.128-22.754,11.749-22.754,24.64c0,13.017,10.154,23.763,23.206,24.675c0.218,0.042,0.439,0.063,0.663,0.063h63.166     c0.096,0,0.19-0.004,0.284-0.01c0.28,0.007,0.562,0.01,0.844,0.01c16.271,0,29.508-13.097,29.508-29.195     C188.377,37.717,175.05,24.596,158.717,24.669z M158.868,75.927c-0.326,0-0.649-0.007-0.97-0.021     c-0.054-0.004-0.108-0.004-0.162-0.004c-0.139,0-0.277,0.007-0.413,0.024H95.028c-0.089-0.01-0.176-0.017-0.265-0.024     c-9.493-0.481-16.927-8.204-16.927-17.582c0-10.025,8.688-18.021,18.829-17.582c0.991,0.045,1.924-0.324,2.627-0.996     c0.705-0.676,1.104-1.619,1.104-2.594c0-14.009,12.062-25.406,26.888-25.406c11.791,0,22.097,7.132,25.647,17.746     c0.526,1.57,2.087,2.622,3.719,2.417c0.73-0.07,1.469-0.104,2.218-0.104c12.339,0,22.377,9.897,22.377,22.063     C181.245,66.031,171.208,75.927,158.868,75.927z" data-original="#000000" class="active-path" data-old_color="#F9F9F3" fill="#FDFDFD"/>
			<path d="M102.797,115.152L102.797,115.152v-7.133H12.176l6.519-6.519l-5.042-5.042L1.045,109.065     C0.376,109.733,0,110.638,0,111.586c0,0.947,0.376,1.852,1.045,2.521l12.607,12.606l5.042-5.042l-6.519-6.519H102.797z" data-original="#000000" class="active-path" data-old_color="#F9F9F3" fill="#FDFDFD"/>
			<path d="M131.324,143.678v-7.132H40.702l6.519-6.519l-5.042-5.042l-12.607,12.606c-0.669,0.669-1.045,1.574-1.045,2.521     c0,0.947,0.376,1.852,1.045,2.521l12.607,12.606l5.042-5.042l-6.519-6.519H131.324z" data-original="#000000" class="active-path" data-old_color="#F9F9F3" fill="#FDFDFD"/>
			<path d="M79.313,158.554l-5.042-5.042l-12.607,12.606c-0.669,0.669-1.045,1.574-1.045,2.521c0,0.947,0.376,1.852,1.045,2.521     l12.607,12.606l5.042-5.042l-6.519-6.519h90.622v-7.132H72.795L79.313,158.554z" data-original="#000000" class="active-path" data-old_color="#F9F9F3" fill="#FDFDFD"/>
		</g>
	</g>
</g></g> </svg>
