<?xml version="1.0"?>
<svg xmlns="http://www.w3.org/2000/svg" height="512px" viewBox="-21 0 512 512" width="512px" class=""><g><path d="m346.503906 80.59375c-20.644531-48.199219-68.65625-80.59375-122.136718-80.59375-68.074219 0-124.347657 51.480469-131.9375 117.554688h-18.402344c-40.816406 0-74.027344 33.207031-74.027344 74.027343 0 40.820313 33.210938 74.027344 74.027344 74.027344 322.234375 0 301.625.046875 304.378906-.089844 50.3125-1.953125 90.933594-43.273437 90.933594-94.566406 0-63.378906-61.628906-109.410156-122.835938-90.359375zm28.199219 154.09375h-300.675781c-23.769532 0-43.105469-19.335938-43.105469-43.105469s19.335937-43.105469 43.105469-43.105469h32.996094c8.539062 0 15.460937-6.925781 15.460937-15.460937l-.003906-.242187c.019531-56.167969 45.71875-101.851563 101.886719-101.851563 45.511718 0 85.859374 30.570313 98.117187 74.34375 2.664063 9.511719 13.464844 14.128906 22.183594 9.460937 42.261719-22.621093 93.75 8.164063 93.75 56.230469 0 35.675781-28.753907 63.730469-63.714844 63.730469zm0 0" data-original="#000000" class="active-path" data-old_color="#ffffff" fill="#ffffff"/><path d="m101.710938 390.738281c-8.539063 0-15.460938 6.921875-15.460938 15.460938v90.339843c0 8.539063 6.921875 15.460938 15.460938 15.460938 8.539062 0 15.460937-6.921875 15.460937-15.460938v-90.339843c0-8.539063-6.921875-15.460938-15.460937-15.460938zm0 0" data-original="#000000" class="active-path" data-old_color="#ffffff" fill="#ffffff"/><path d="m101.710938 303.28125c-8.539063 0-15.460938 6.921875-15.460938 15.460938v33.085937c0 8.539063 6.921875 15.460937 15.460938 15.460937 8.539062 0 15.460937-6.921874 15.460937-15.460937v-33.085937c0-8.539063-6.921875-15.460938-15.460937-15.460938zm0 0" data-original="#000000" class="active-path" data-old_color="#ffffff" fill="#ffffff"/><path d="m190.351562 449.984375c-8.539062 0-15.460937 6.921875-15.460937 15.460937v31.09375c0 8.539063 6.921875 15.460938 15.460937 15.460938 8.539063 0 15.460938-6.921875 15.460938-15.460938v-31.09375c0-8.539062-6.921875-15.460937-15.460938-15.460937zm0 0" data-original="#000000" class="active-path" data-old_color="#ffffff" fill="#ffffff"/><path d="m190.351562 303.28125c-8.539062 0-15.460937 6.921875-15.460937 15.460938v92.863281c0 8.539062 6.921875 15.460937 15.460937 15.460937 8.539063 0 15.460938-6.921875 15.460938-15.460937v-92.863281c0-8.539063-6.921875-15.460938-15.460938-15.460938zm0 0" data-original="#000000" class="active-path" data-old_color="#ffffff" fill="#ffffff"/><path d="m278.992188 381.035156c-8.539063 0-15.460938 6.921875-15.460938 15.460938v100.042968c0 8.539063 6.921875 15.460938 15.460938 15.460938 8.535156 0 15.460937-6.921875 15.460937-15.460938v-100.042968c0-8.539063-6.925781-15.460938-15.460937-15.460938zm0 0" data-original="#000000" class="active-path" data-old_color="#ffffff" fill="#ffffff"/><path d="m278.992188 303.28125c-8.539063 0-15.460938 6.921875-15.460938 15.460938v23.332031c0 8.539062 6.921875 15.460937 15.460938 15.460937 8.535156 0 15.460937-6.921875 15.460937-15.460937v-23.332031c0-8.539063-6.925781-15.460938-15.460937-15.460938zm0 0" data-original="#000000" class="active-path" data-old_color="#ffffff" fill="#ffffff"/><path d="m367.632812 431.640625c-8.539062 0-15.460937 6.921875-15.460937 15.460937v49.4375c0 8.539063 6.921875 15.460938 15.460937 15.460938 8.535157 0 15.460938-6.921875 15.460938-15.460938v-49.4375c0-8.539062-6.925781-15.460937-15.460938-15.460937zm0 0" data-original="#000000" class="active-path" data-old_color="#ffffff" fill="#ffffff"/><path d="m367.632812 303.28125c-8.539062 0-15.460937 6.921875-15.460937 15.460938v73.828124c0 8.539063 6.921875 15.460938 15.460937 15.460938 8.535157 0 15.460938-6.921875 15.460938-15.460938v-73.828124c0-8.539063-6.925781-15.460938-15.460938-15.460938zm0 0" data-original="#000000" class="active-path" data-old_color="#ffffff" fill="#ffffff"/></g> </svg>
