<?xml version="1.0"?>
<svg xmlns="http://www.w3.org/2000/svg" xmlns:xlink="http://www.w3.org/1999/xlink" version="1.1" id="Capa_1" x="0px" y="0px" viewBox="0 0 480 480" style="enable-background:new 0 0 480 480;" xml:space="preserve" width="512px" height="512px" class=""><g><g>
	<g>
		<polygon points="208,320 187.312,320 201.656,305.656 190.344,294.344 176,308.688 176,288 160,288 160,308.688 145.656,294.344     134.344,305.656 148.688,320 128,320 128,336 148.688,336 134.344,350.344 145.656,361.656 160,347.312 160,368 176,368     176,347.312 190.344,361.656 201.656,350.344 187.312,336 208,336   " data-original="#000000" class="active-path" data-old_color="#ffffff" fill="#ffffff"/>
	</g>
</g><g>
	<g>
		<polygon points="368,320 347.312,320 361.656,305.656 350.344,294.344 336,308.688 336,288 320,288 320,308.688 305.656,294.344     294.344,305.656 308.688,320 288,320 288,336 308.688,336 294.344,350.344 305.656,361.656 320,347.312 320,368 336,368     336,347.312 350.344,361.656 361.656,350.344 347.312,336 368,336   " data-original="#000000" class="active-path" data-old_color="#ffffff" fill="#ffffff"/>
	</g>
</g><g>
	<g>
		<polygon points="368,432 347.312,432 361.656,417.656 350.344,406.344 336,420.688 336,400 320,400 320,420.688 305.656,406.344     294.344,417.656 308.688,432 288,432 288,448 308.688,448 294.344,462.344 305.656,473.656 320,459.312 320,480 336,480     336,459.312 350.344,473.656 361.656,462.344 347.312,448 368,448   " data-original="#000000" class="active-path" data-old_color="#ffffff" fill="#ffffff"/>
	</g>
</g><g>
	<g>
		<polygon points="208,432 187.312,432 201.656,417.656 190.344,406.344 176,420.688 176,400 160,400 160,420.688 145.656,406.344     134.344,417.656 148.688,432 128,432 128,448 148.688,448 134.344,462.344 145.656,473.656 160,459.312 160,480 176,480     176,459.312 190.344,473.656 201.656,462.344 187.312,448 208,448   " data-original="#000000" class="active-path" data-old_color="#ffffff" fill="#ffffff"/>
	</g>
</g><g>
	<g>
		<rect x="80" y="288" width="16" height="192" data-original="#000000" class="active-path" data-old_color="#ffffff" fill="#ffffff"/>
	</g>
</g><g>
	<g>
		<rect x="240" y="288" width="16" height="192" data-original="#000000" class="active-path" data-old_color="#ffffff" fill="#ffffff"/>
	</g>
</g><g>
	<g>
		<rect x="400" y="288" width="16" height="192" data-original="#000000" class="active-path" data-old_color="#ffffff" fill="#ffffff"/>
	</g>
</g><g>
	<g>
		<path d="M390.24,72.952C376.04,30.384,327.304,0,272,0c-51.352,0-94.76,28.784-109.92,72.216    c-32.712,2.032-60.184,17.392-71.312,39.736c-0.128,0-0.24,0.008-0.36,0.008L88,112c-48.52,0-88,35.888-88,80s39.48,80,88,80    h280.272C428.832,269.928,480,222.304,480,168C480,121.504,443.352,83.016,390.24,72.952z M368,256H88c-39.704,0-72-28.712-72-64    c0-35.288,32.296-64,72-64l2.76-0.04c0.872-0.016,1.776-0.04,2.64-0.04c0.696,0,1.376,0.016,2.008,0.064    c3.536,0.296,6.88-1.872,8.112-5.232c7.312-20.048,33.864-34.336,64.592-34.744c3.528-0.048,6.616-2.408,7.584-5.808    C186.992,42.6,225.696,16,272,16c49.496,0,94.32,28.392,104.264,66.04c0.816,3.08,3.376,5.384,6.52,5.864    C430.608,95.208,464,128.144,464,168C464,213.92,419.912,254.224,368,256z" data-original="#000000" class="active-path" data-old_color="#ffffff" fill="#ffffff"/>
	</g>
</g></g> </svg>
