<?xml version="1.0"?>
<svg xmlns="http://www.w3.org/2000/svg" height="512px" viewBox="-45 0 512 512" width="512px" class=""><g><path d="m312.0625 71.347656c-19.121094-42.75-62.15625-71.347656-110.015625-71.347656-61.097656 0-111.714844 45.710938-119.449219 104.734375h-14.496094c-37.550781 0-68.101562 30.546875-68.101562 68.101563 0 37.542968 30.550781 68.089843 68.101562 68.089843 287.027344 0 269.050782.042969 271.289063-.082031 45.910156-1.789062 83.0625-39.492188 83.0625-86.386719 0-57.382812-55.140625-99-110.390625-83.109375zm25.808594 137.703125c-1.292969.066407-268.097656.042969-269.769532.042969-20 0-36.269531-16.265625-36.269531-36.257812 0-20.003907 16.265625-36.269532 36.269531-36.269532h29.394532c8.394531 0 15.914062-6.609375 15.914062-16.226562.066406-48.808594 39.804688-88.507813 88.636719-88.507813 39.589844 0 74.691406 26.59375 85.355469 64.675781 2.75 9.789063 13.855468 14.535157 22.835937 9.742188 7.980469-4.277344 16.636719-6.441406 25.734375-6.441406 30.132813 0 54.644532 24.511718 54.644532 54.648437 0 29.488281-23.078126 53.46875-52.535157 54.585938-.074219 0-.136719.007812-.210937.007812zm0 0" data-original="#000000" class="active-path" data-old_color="#ffffff" fill="#ffffff"/><path d="m234.554688 441.78125c0 9.449219-7.660157 17.105469-17.105469 17.105469-9.449219 0-17.105469-7.65625-17.105469-17.105469 0-9.445312 7.65625-17.105469 17.105469-17.105469 9.445312 0 17.105469 7.660157 17.105469 17.105469zm0 0" data-original="#000000" class="active-path" data-old_color="#ffffff" fill="#ffffff"/><path d="m105.011719 322.640625c0 9.445313-7.65625 17.101563-17.105469 17.101563-9.445312 0-17.101562-7.65625-17.101562-17.101563 0-9.449219 7.65625-17.105469 17.101562-17.105469 9.449219 0 17.105469 7.65625 17.105469 17.105469zm0 0" data-original="#000000" class="active-path" data-old_color="#ffffff" fill="#ffffff"/><path d="m356.058594 322.640625c0 9.445313-7.660156 17.101563-17.105469 17.101563s-17.105469-7.65625-17.105469-17.101563c0-9.449219 7.660156-17.105469 17.105469-17.105469s17.105469 7.65625 17.105469 17.105469zm0 0" data-original="#000000" class="active-path" data-old_color="#ffffff" fill="#ffffff"/><path d="m137.980469 424.242188c-4.394531-7.613282-14.128907-10.222657-21.742188-5.828126l-12.414062 7.167969v-15.363281c0-8.789062-7.125-15.914062-15.914063-15.914062-8.792968 0-15.917968 7.125-15.917968 15.914062v15.367188l-12.414063-7.171876c-7.617187-4.398437-17.347656-1.785156-21.742187 5.828126-4.398438 7.613281-1.789063 17.347656 5.824218 21.742187l12.414063 7.167969-12.414063 7.167968c-7.613281 4.394532-10.222656 14.128907-5.824218 21.742188 4.394531 7.613281 14.128906 10.21875 21.742187 5.824219l12.414063-7.167969v15.363281c0 8.792969 7.125 15.917969 15.917968 15.917969 8.789063 0 15.914063-7.125 15.914063-15.917969v-15.359375l12.414062 7.164063c7.609375 4.394531 17.34375 1.792969 21.742188-5.824219 4.394531-7.613281 1.789062-17.347656-5.824219-21.742188l-12.417969-7.167968 12.417969-7.167969c7.613281-4.394531 10.21875-14.128906 5.824219-21.742187zm0 0" data-original="#000000" class="active-path" data-old_color="#ffffff" fill="#ffffff"/><path d="m389.027344 424.242188c-4.394532-7.613282-14.128906-10.222657-21.742188-5.828126l-12.414062 7.171876v-15.367188c0-8.789062-7.125-15.914062-15.917969-15.914062-8.789063 0-15.914063 7.125-15.914063 15.914062v15.363281l-12.414062-7.167969c-7.613281-4.398437-17.347656-1.785156-21.742188 5.828126-4.398437 7.613281-1.789062 17.347656 5.824219 21.742187l12.414063 7.167969-12.414063 7.167968c-7.613281 4.394532-10.222656 14.128907-5.824219 21.742188 4.394532 7.613281 14.128907 10.21875 21.742188 5.824219l12.414062-7.164063v15.359375c0 8.792969 7.125 15.917969 15.914063 15.917969 8.792969 0 15.917969-7.125 15.917969-15.917969v-15.363281l12.414062 7.167969c7.605469 4.394531 17.34375 1.792969 21.742188-5.824219 4.398437-7.613281 1.789062-17.347656-5.824219-21.742188l-12.414063-7.167968 12.414063-7.167969c7.613281-4.394531 10.222656-14.128906 5.824219-21.742187zm0 0" data-original="#000000" class="active-path" data-old_color="#ffffff" fill="#ffffff"/><path d="m267.519531 293.730469c-4.394531-7.613281-14.128906-10.222657-21.742187-5.824219l-12.414063 7.164062v-15.363281c0-8.789062-7.125-15.914062-15.914062-15.914062-8.792969 0-15.917969 7.125-15.917969 15.914062v15.367188l-12.414062-7.167969c-7.613282-4.398438-17.347657-1.789062-21.742188 5.824219-4.398438 7.613281-1.789062 17.347656 5.824219 21.742187l12.414062 7.167969-12.414062 7.167969c-7.613281 4.394531-10.222657 14.128906-5.824219 21.742187 4.394531 7.613281 14.128906 10.21875 21.742188 5.824219l12.414062-7.167969v15.363281c0 8.792969 7.125 15.917969 15.917969 15.917969 8.789062 0 15.914062-7.128906 15.914062-15.917969v-15.363281l12.414063 7.167969c7.609375 4.394531 17.34375 1.792969 21.742187-5.824219 4.398438-7.613281 1.789063-17.347656-5.824219-21.742187l-12.414062-7.167969 12.414062-7.167969c7.613282-4.394531 10.222657-14.128906 5.824219-21.742187zm0 0" data-original="#000000" class="active-path" data-old_color="#ffffff" fill="#ffffff"/></g> </svg>
