<?xml version="1.0"?>
<svg xmlns="http://www.w3.org/2000/svg" xmlns:xlink="http://www.w3.org/1999/xlink" version="1.1" id="Capa_1" x="0px" y="0px" viewBox="0 0 512 512" style="enable-background:new 0 0 512 512;" xml:space="preserve" width="512px" height="512px" class=""><g><g>
	<g>
		<g>
			<path d="M143.396,363.771c-3.646-1.823-8-1.396-11.208,1.094l-33.146,25.365c-8.708,6.188-13.708,15.563-13.708,25.771     c0,17.646,14.354,32,32,32c17.646,0,32-14.354,32-32v-42.667C149.333,369.271,147.021,365.563,143.396,363.771z M128,416     c0,5.885-4.792,10.667-10.667,10.667s-10.667-4.781-10.667-10.667c0-4.417,3-7.188,4.813-8.438     c0.125-0.083,0.229-0.177,0.354-0.271L128,394.927V416z" data-original="#000000" class="active-path" data-old_color="#ffffff" fill="#ffffff"/>
			<path d="M260.729,427.771c-3.646-1.813-8-1.396-11.208,1.094l-33.146,25.365c-8.708,6.177-13.708,15.552-13.708,25.771     c0,17.646,14.354,32,32,32c17.646,0,32-14.354,32-32v-42.667C266.667,433.271,264.354,429.563,260.729,427.771z M245.333,480     c0,5.885-4.792,10.667-10.667,10.667S224,485.885,224,480c0-4.417,3-7.167,4.792-8.417c0.125-0.094,0.25-0.188,0.375-0.281     l16.167-12.375V480z" data-original="#000000" class="active-path" data-old_color="#ffffff" fill="#ffffff"/>
			<path d="M378.063,363.771c-3.646-1.823-8-1.396-11.208,1.094l-33.146,25.365C325,396.417,320,405.792,320,416     c0,17.646,14.354,32,32,32c17.646,0,32-14.354,32-32v-42.667C384,369.271,381.688,365.563,378.063,363.771z M362.667,416     c0,5.885-4.792,10.667-10.667,10.667s-10.667-4.781-10.667-10.667c0-4.417,3-7.188,4.813-8.438     c0.125-0.083,0.229-0.177,0.354-0.271l16.167-12.365V416z" data-original="#000000" class="active-path" data-old_color="#ffffff" fill="#ffffff"/>
			<path d="M394.667,106.667c-0.762,0-1.513,0.171-2.273,0.186C366.741,42.762,304.542,0,234.667,0     C145.935,0,72.861,67.509,65.111,154.884C27.374,167.822,0,203.263,0,245.333c0,52.938,43.063,96,96,96h106.451l-10.242,51.24     c-0.979,4.938,1.604,9.885,6.208,11.885c1.375,0.594,2.813,0.875,4.25,0.875c3.354,0,6.625-1.594,8.688-4.469l42.522-59.531     h140.79C459.354,341.333,512,288.698,512,224S459.354,106.667,394.667,106.667z M222.875,348.031l11.583-57.938     c0.625-3.135-0.188-6.385-2.208-8.854s-5.063-3.906-8.25-3.906h-43.271l65.729-92.031l-11.583,57.938     c-0.625,3.135,0.188,6.385,2.208,8.854c2.021,2.469,5.063,3.906,8.25,3.906h43.271L222.875,348.031z M394.667,320H269.115     l48.906-68.469c2.313-3.25,2.625-7.531,0.792-11.083c-1.833-3.552-5.479-5.781-9.479-5.781h-50.979l18.771-93.906     c0.979-4.938-1.604-9.885-6.208-11.885c-4.563-1.969-9.979-0.5-12.938,3.594L151.313,281.802     c-2.313,3.25-2.625,7.531-0.792,11.083c1.833,3.552,5.479,5.781,9.479,5.781h50.979L206.715,320H96     c-41.167,0-74.667-33.5-74.667-74.667c0-41.167,33.5-74.667,74.667-74.667c5.896,0,10.667-4.771,10.667-10.667     S101.896,149.333,96,149.333c-3.098,0-6.021,0.626-9.044,0.914c9.751-73.22,72.298-128.914,147.711-128.914     c59.223,0,112.033,35.142,135.678,88.26c-16.501,3.553-32.369,10.339-46.053,20.51c-4.708,3.521-5.708,10.198-2.188,14.927     c3.521,4.729,10.229,5.667,14.917,2.198C353.708,134.833,374.167,128,394.667,128c52.938,0,96,43.063,96,96     S447.604,320,394.667,320z" data-original="#000000" class="active-path" data-old_color="#ffffff" fill="#ffffff"/>
		</g>
	</g>
</g></g> </svg>
