<?xml version="1.0"?>
<svg xmlns="http://www.w3.org/2000/svg" xmlns:xlink="http://www.w3.org/1999/xlink" version="1.1" id="Capa_1" x="0px" y="0px" viewBox="0 0 187.496 187.496" style="enable-background:new 0 0 187.496 187.496;" xml:space="preserve" width="512px" height="512px" class=""><g><g>
	<path d="M93.748,0C42.056,0,0,42.055,0,93.748s42.056,93.748,93.748,93.748s93.748-42.055,93.748-93.748S145.44,0,93.748,0z    M93.748,173.496C49.774,173.496,14,137.721,14,93.748S49.774,14,93.748,14s79.748,35.775,79.748,79.748   S137.722,173.496,93.748,173.496z" data-original="#000000" class="active-path" data-old_color="#00417F" fill="#FFFFFF"/>
	<path d="M136.623,64.953c-3.348-1.933-7.629-0.786-9.563,2.562l-20.188,34.967l-5.042-8.733l11.104-19.234   c1.933-3.348,0.785-7.629-2.563-9.562s-7.629-0.786-9.563,2.562l-7.063,12.233l-7.063-12.233c-1.934-3.348-6.213-4.496-9.563-2.562   c-3.348,1.933-4.495,6.214-2.563,9.562l11.104,19.234l-5.042,8.733L60.436,67.515c-1.934-3.348-6.213-4.496-9.563-2.562   c-3.348,1.933-4.495,6.214-2.563,9.562l26.25,45.467c1.251,2.166,3.562,3.5,6.063,3.5s4.812-1.334,6.063-3.5l7.063-12.233   l7.063,12.233c1.251,2.166,3.562,3.5,6.063,3.5s4.812-1.334,6.063-3.5l26.25-45.467C141.118,71.167,139.971,66.885,136.623,64.953z   " data-original="#000000" class="active-path" data-old_color="#00417F" fill="#FFFFFF"/>
</g></g> </svg>
