<?xml version="1.0"?>

<svg xmlns="http://www.w3.org/2000/svg" xmlns:xlink="http://www.w3.org/1999/xlink" version="1.1" id="Capa_1" x="0px" y="0px" viewBox="0 0 512 512" style="enable-background:new 0 0 512 512;" xml:space="preserve" width="512px" height="512px" class=""><g><circle style="fill:#107DAC" cx="256" cy="267" r="245" data-original="#FF8DB9" class="active-path" data-old_color="#FF8DB9"/><path style="fill:#60D882" d="M224.014,85.115c0,1.356-1.145,2.5-2.5,2.5h-71.988c-1.355,0-2.5-1.144-2.5-2.5V17.5  c0-1.355,1.145-2.5,2.5-2.5h71.988c1.355,0,2.5,1.145,2.5,2.5V85.115z" data-original="#60D882" class=""/><path style="fill:#D9EAFC" d="M275.5,76c-1.355,0-2.5,1.145-2.5,2.5v118.131c0,1.355,1.145,2.5,2.5,2.5h125.023  c1.355,0,2.5-1.145,2.5-2.5V78.5c0-1.355-1.145-2.5-2.5-2.5H275.5z" data-original="#D9EAFC" class=""/><path style="fill:#445EA0" d="M467.473,390.756V252.5c0-1.355-1.145-2.5-2.5-2.5H275.5c-1.355,0-2.5,1.145-2.5,2.5v179.516  c0,1.355,1.145,2.5,2.5,2.5h159.263C447.216,421.231,458.203,406.56,467.473,390.756z" data-original="#445EA0" class=""/><path style="fill:#2E4C89" d="M400.523,214.131H275.5c-9.649,0-17.5-7.851-17.5-17.5V78.5c0-9.649,7.851-17.5,17.5-17.5h125.023  c9.65,0,17.5,7.851,17.5,17.5v118.131C418.023,206.28,410.173,214.131,400.523,214.131z M275.5,76c-1.355,0-2.5,1.145-2.5,2.5  v118.131c0,1.355,1.145,2.5,2.5,2.5h125.023c1.355,0,2.5-1.145,2.5-2.5V78.5c0-1.355-1.145-2.5-2.5-2.5H275.5z" data-original="#2E4C89" class=""/><path style="fill:#5DC1D8" d="M326.544,149.25l-3.391,8.811c-0.159,0.415-0.104,0.884,0.147,1.249  c0.253,0.367,0.67,0.587,1.116,0.587h10.143v29.502c0,0.65,0.465,1.209,1.104,1.328c0.083,0.016,0.168,0.023,0.249,0.023  c0.55,0,1.056-0.338,1.26-0.867l15.635-40.633H326.544z" data-original="#5DC1D8" class=""/><path style="fill:#445EA0" d="M372.313,121.35h-3.227c0.498-1.544,0.775-3.189,0.775-4.899c0-8.796-7.129-15.925-15.924-15.925  c-3.539,0-6.797,1.168-9.441,3.121c-3.73-8.332-12.076-14.146-21.797-14.146c-13.193,0-23.887,10.695-23.887,23.888  c0,2.947,0.559,5.758,1.535,8.364c-6.494,1.523-11.336,7.339-11.336,14.298c0,8.118,6.582,14.7,14.701,14.7h68.6  c8.117,0,14.699-6.582,14.699-14.7S380.43,121.35,372.313,121.35z" data-original="#445EA0" class=""/><path style="fill:#2E4C89" d="M300,136.05c0-6.959,4.842-12.774,11.336-14.298c-0.977-2.606-1.535-5.417-1.535-8.364  c0-11.301,7.849-20.762,18.392-23.245c-1.764-0.416-3.602-0.643-5.493-0.643c-13.193,0-23.887,10.695-23.887,23.888  c0,2.947,0.559,5.758,1.535,8.364c-6.494,1.523-11.336,7.339-11.336,14.298c0,8.118,6.582,14.7,14.701,14.7h10.988  C306.582,150.75,300,144.168,300,136.05z" data-original="#2E4C89" class=""/><circle style="fill:#FFAF10" cx="368.7" cy="342.64" r="47.572" data-original="#FFAF10" class=""/><path style="fill:#EF9614" d="M342,342.641c0-22.686,15.886-41.651,37.137-46.41c-3.359-0.752-6.849-1.162-10.435-1.162  c-26.273,0-47.572,21.299-47.572,47.572c0,26.273,21.299,47.572,47.572,47.572c3.587,0,7.076-0.41,10.435-1.162  C357.886,384.292,342,365.327,342,342.641z" data-original="#EF9614" class=""/><g>
	<path style="fill:#FFAF10" d="M368.701,283.498c-4.143,0-7.5-3.357-7.5-7.5v-9.432c0-4.143,3.357-7.5,7.5-7.5s7.5,3.357,7.5,7.5   v9.432C376.201,280.141,372.844,283.498,368.701,283.498z" data-original="#FFAF10" class=""/>
	<path style="fill:#FFAF10" d="M416.004,301.82c-1.919,0-3.839-0.732-5.304-2.196c-2.929-2.93-2.929-7.678,0-10.607l6.67-6.67   c2.93-2.928,7.678-2.928,10.607,0c2.929,2.93,2.929,7.678,0,10.607l-6.67,6.67C419.843,301.088,417.923,301.82,416.004,301.82z" data-original="#FFAF10" class=""/>
	<path style="fill:#FFAF10" d="M445.928,348.223h-9.432c-4.143,0-7.5-3.357-7.5-7.5s3.357-7.5,7.5-7.5h9.432   c4.143,0,7.5,3.357,7.5,7.5C453.428,344.865,450.07,348.223,445.928,348.223z" data-original="#FFAF10" class=""/>
	<path style="fill:#FFAF10" d="M424.844,402.193c-1.919,0-3.838-0.732-5.303-2.196l-6.67-6.669   c-2.93-2.929-2.93-7.678-0.001-10.606c2.93-2.93,7.677-2.929,10.607-0.001l6.67,6.669c2.93,2.929,2.93,7.678,0.001,10.607   C428.683,401.461,426.763,402.193,424.844,402.193z" data-original="#FFAF10" class=""/>
	<path style="fill:#FFAF10" d="M371.772,425.449c-4.143,0-7.5-3.357-7.5-7.5v-9.433c0-4.143,3.357-7.5,7.5-7.5s7.5,3.357,7.5,7.5   v9.433C379.272,422.092,375.914,425.449,371.772,425.449z" data-original="#FFAF10" class=""/>
	<path style="fill:#FFAF10" d="M317.801,404.364c-1.92,0-3.839-0.732-5.304-2.197c-2.929-2.929-2.929-7.678,0.001-10.607   l6.67-6.669c2.929-2.929,7.678-2.928,10.606,0.001c2.929,2.929,2.929,7.678-0.001,10.606l-6.67,6.669   C321.64,403.632,319.72,404.364,317.801,404.364z" data-original="#FFAF10" class=""/>
	<path style="fill:#FFAF10" d="M303.978,351.293h-9.434c-4.143,0-7.5-3.358-7.5-7.5c0-4.143,3.357-7.5,7.5-7.5h9.434   c4.143,0,7.5,3.357,7.5,7.5C311.478,347.935,308.121,351.293,303.978,351.293z" data-original="#FFAF10" class=""/>
	<path style="fill:#FFAF10" d="M322.299,303.99c-1.919,0-3.838-0.732-5.303-2.196l-6.67-6.669c-2.93-2.929-2.93-7.678-0.001-10.606   c2.93-2.93,7.677-2.929,10.606-0.001l6.67,6.669c2.93,2.929,2.93,7.678,0.001,10.607   C326.138,303.258,324.218,303.99,322.299,303.99z" data-original="#FFAF10" class=""/>
</g><path style="fill:#2E4C89" d="M482.473,360.588V252.5c0-9.649-7.851-17.5-17.5-17.5H275.5c-9.649,0-17.5,7.851-17.5,17.5v179.516  c0,9.649,7.851,17.5,17.5,17.5h143.923c5.329-4.775,10.446-9.78,15.34-15H275.5c-1.355,0-2.5-1.145-2.5-2.5V252.5  c0-1.355,1.145-2.5,2.5-2.5h189.473c1.355,0,2.5,1.145,2.5,2.5v138.256C473.135,381.103,478.154,371.027,482.473,360.588z" data-original="#2E4C89" class=""/><g>
	<path style="fill:#445EA0" d="M221.514,0h-71.988c-9.649,0-17.5,7.851-17.5,17.5v67.615c0,9.649,7.851,17.5,17.5,17.5h71.988   c9.649,0,17.5-7.851,17.5-17.5V17.5C239.014,7.851,231.163,0,221.514,0z M224.014,85.115c0,1.356-1.145,2.5-2.5,2.5h-71.988   c-1.355,0-2.5-1.144-2.5-2.5V17.5c0-1.355,1.145-2.5,2.5-2.5h71.988c1.355,0,2.5,1.145,2.5,2.5V85.115z" data-original="#445EA0" class=""/>
	<path style="fill:#445EA0" d="M207.275,52.084h-2.046c0.316-0.979,0.492-2.022,0.492-3.107c0-5.579-4.522-10.102-10.101-10.102   c-2.244,0-4.311,0.741-5.988,1.98c-2.367-5.285-7.661-8.973-13.826-8.973c-8.368,0-15.152,6.783-15.152,15.151   c0,1.869,0.355,3.652,0.975,5.306c-4.119,0.966-7.189,4.654-7.189,9.068c0,5.15,4.174,9.324,9.324,9.324h43.512   c5.15,0,9.324-4.174,9.324-9.324C216.6,56.26,212.426,52.084,207.275,52.084z" data-original="#445EA0" class=""/>
</g><path style="fill:#2E4C89" d="M164.84,61.408c0-4.414,3.07-8.103,7.189-9.068c-0.619-1.653-0.975-3.437-0.975-5.306  c0-6.543,4.156-12.101,9.965-14.221c-1.625-0.598-3.379-0.931-5.213-0.931c-8.368,0-15.152,6.783-15.152,15.151  c0,1.869,0.355,3.652,0.975,5.306c-4.119,0.966-7.189,4.654-7.189,9.068c0,5.15,4.174,9.324,9.324,9.324h10.4  C169.014,70.732,164.84,66.559,164.84,61.408z" data-original="#2E4C89" class=""/><g>
	<path style="fill:#445EA0" d="M239.014,455.897v-27.904H71.328c14.715,16.866,31.706,31.688,50.489,44.008h101.095   C231.766,472,239.014,464.756,239.014,455.897z" data-original="#445EA0" class=""/>
	<path style="fill:#445EA0" d="M222.912,120.336H65.105c-8.86,0-16.105,7.246-16.105,16.104v17.877h190.014V136.44   C239.014,127.582,231.766,120.336,222.912,120.336z" data-original="#445EA0" class=""/>
</g><path style="fill:#94C2ED" d="M239.014,153.816H49v244.279c6.808,10.728,14.428,20.887,22.771,30.397h167.242V153.816H239.014z" data-original="#94C2ED" class=""/><path style="fill:#6A8AC4" d="M49,153.816v244.279c4.919,7.751,10.266,15.203,16,22.331v-266.61L49,153.816L49,153.816z" data-original="#6A8AC4"/><path style="fill:#FFFFFF" d="M160.452,454h-32.891c-4.143,0-7.5-3.357-7.5-7.5s3.357-7.5,7.5-7.5h32.891  c4.143,0,7.5,3.357,7.5,7.5S164.595,454,160.452,454z" data-original="#FFFFFF"/><path style="fill:#EEF6FF" d="M176.79,249.786h-3.084c0.477-1.476,0.742-3.048,0.742-4.683c0-8.407-6.814-15.221-15.221-15.221  c-3.382,0-6.496,1.116-9.023,2.983c-3.565-7.964-11.543-13.521-20.833-13.521c-12.61,0-22.831,10.223-22.831,22.832  c0,2.816,0.534,5.503,1.468,7.994c-6.207,1.456-10.835,7.015-10.835,13.666c0,7.759,6.291,14.05,14.051,14.05h65.566  c7.76,0,14.051-6.291,14.051-14.05S184.55,249.786,176.79,249.786z" data-original="#EEF6FF"/><path style="fill:#D9EAFC" d="M107.332,263.837c0-6.651,4.628-12.21,10.835-13.666c-0.934-2.491-1.468-5.178-1.468-7.994  c0-10.866,7.593-19.954,17.763-22.261c-1.637-0.373-3.341-0.571-5.091-0.571c-12.61,0-22.831,10.223-22.831,22.832  c0,2.816,0.534,5.503,1.468,7.994c-6.207,1.456-10.835,7.015-10.835,13.666c0,7.759,6.291,14.05,14.051,14.05h10.159  C113.623,277.887,107.332,271.596,107.332,263.837z" data-original="#D9EAFC" class=""/><g>
	<path style="fill:#EEF6FF" d="M82.455,222.888c-4.143,0-7.5-3.357-7.5-7.5v-28.324c0-4.143,3.357-7.5,7.5-7.5h27.935   c4.143,0,7.5,3.357,7.5,7.5s-3.357,7.5-7.5,7.5H89.955v20.824C89.955,219.53,86.598,222.888,82.455,222.888z" data-original="#EEF6FF"/>
	<path style="fill:#EEF6FF" d="M205.559,222.888c-4.143,0-7.5-3.357-7.5-7.5v-20.824h-20.435c-4.143,0-7.5-3.357-7.5-7.5   s3.357-7.5,7.5-7.5h27.935c4.143,0,7.5,3.357,7.5,7.5v28.324C213.059,219.53,209.701,222.888,205.559,222.888z" data-original="#EEF6FF"/>
	<path style="fill:#EEF6FF" d="M205.559,317.668h-27.935c-4.143,0-7.5-3.358-7.5-7.5c0-4.143,3.357-7.5,7.5-7.5h20.435v-20.046   c0-4.143,3.357-7.5,7.5-7.5s7.5,3.357,7.5,7.5v27.546C213.059,314.31,209.701,317.668,205.559,317.668z" data-original="#EEF6FF"/>
	<path style="fill:#EEF6FF" d="M110.39,317.668H82.455c-4.143,0-7.5-3.358-7.5-7.5v-27.546c0-4.143,3.357-7.5,7.5-7.5   s7.5,3.357,7.5,7.5v20.046h20.435c4.143,0,7.5,3.357,7.5,7.5C117.89,314.31,114.532,317.668,110.39,317.668z" data-original="#EEF6FF"/>
	<path style="fill:#EEF6FF" d="M76.14,388.844c0,5.5,4.5,10,10,10h115.734c5.5,0,10-4.5,10-10v-37.993c0-5.5-4.5-10-10-10H86.14   c-5.5,0-10,4.5-10,10V388.844z" data-original="#EEF6FF"/>
</g><path style="fill:#D9EAFC" d="M97,388.844v-37.993c0-5.5,4.5-10,10-10H86.14c-5.5,0-10,4.5-10,10v37.993c0,5.5,4.5,10,10,10H107  C101.5,398.844,97,394.344,97,388.844z" data-original="#D9EAFC" class=""/><g>
	<circle style="fill:#52BBEF" cx="194.88" cy="383.17" r="7.501" data-original="#52BBEF"/>
	<circle style="fill:#52BBEF" cx="172.51" cy="383.17" r="7.501" data-original="#52BBEF"/>
	<circle style="fill:#52BBEF" cx="150.08" cy="383.17" r="7.501" data-original="#52BBEF"/>
</g><circle style="fill:#37C47A" cx="95" cy="138.17" r="7.501" data-original="#37C47A"/><circle style="fill:#1A2B63" cx="72.63" cy="138.17" r="7.5" data-original="#1A2B63" class="" data-old_color="#1A2B63"/></g> </svg>

