<?xml version="1.0"?>
<svg xmlns="http://www.w3.org/2000/svg" height="512px" viewBox="-9 0 511 512" width="512px" class=""><g><path d="m480.132812 159.464844c23.335938-44.867188 15.414063-94.898438-24.214843-152.953125l-4.445313-6.511719h-450.972656l51.710938 28.046875c42.625 23.117187 72.140624 46.84375 89.265624 71.878906h-127.441406v29.851563h141.839844c.050781.179687.113281.359375.164062.539062 2.746094 9.683594 3.855469 19.445313 3.820313 29.316406h-96.070313v29.847657h92.996094c-2.519531 13.648437-6.285156 27.542969-10.140625 41.757812-10.582031 39.039063-21.527343 79.40625-9.535156 123.03125 6.515625 23.703125 19.03125 45.605469 38.261719 66.960938 20.886718 23.1875 49.132812 45.128906 86.355468 67.074219l40.1875 23.695312-18.972656-42.621094c-14.976562-33.644531-19.429687-62.988281-13.34375-89.929687h187.742188v-29.847657h-176.179688c1.074219-1.933593 2.195313-3.855468 3.394532-5.769531 5.25-8.390625 11.539062-16.394531 18.589843-24.085937h92.457031v-29.851563h-60.246093c14.132812-11.535156 29.296875-22.546875 44.253906-33.410156 39.550781-28.71875 80.449219-58.414063 100.523437-97.019531zm-189.667968 130.429687h-87.941406v29.847657h62.242187c-1.914063 2.707031-3.761719 5.453124-5.515625 8.253906-21.242188 33.945312-27.1875 70.734375-17.859375 111.578125-41.757813-30.046875-66.574219-60.753907-75.496094-93.214844-9.832031-35.769531-.410156-70.519531 9.566407-107.308594 4.410156-16.277343 8.886718-32.796875 11.621093-49.570312h154.171875v-29.847657h-151.527344c.03125-9.863281-.871093-19.816406-3.0625-29.855468h104.832032v-29.851563h-115.335938c-12.390625-25.058593-33.457031-48.046875-64.292968-70.074219h323.738281c19.824219 30.492188 40.117187 73.398438 18.042969 115.839844-16.828126 32.359375-53.136719 58.722656-91.578126 86.636719-24.851562 18.042969-50.234374 36.488281-71.605468 57.566406zm0 0" data-original="#000000" class="active-path" data-old_color="#ffffff" fill="#ffffff"/></g> </svg>
